<?xml version="1.0" encoding="UTF-8"?>
<!-- Generator: Adobe Illustrator 19.2.1, SVG Export Plug-In . SVG Version: 6.00 Build 0)  -->
<svg version="1.1" id="Art" xmlns="http://www.w3.org/2000/svg" xmlns:xlink="http://www.w3.org/1999/xlink" x="0px" y="0px" viewBox="0 0 430.1 135.4" style="enable-background:new 0 0 430.1 135.4;" width="430.1" height="135.4" xml:space="preserve" preserveAspectRatio="xMinYMin meet">
<style type="text/css">
	.st0{fill:#6FBF4A;}
	.st1{fill:#7EA7AD;}
	.st2{fill:#0D223F;}
	.st3{fill:#808285;}
</style>
<polygon class="st0" points="50.5,10.7 35.4,10.7 11.9,35.5 11.9,10.7 0,10.7 0,66.5 11.9,66.5 11.9,50.3 18.8,43.3 36.5,66.5   51,66.5 27,35 "/>
<polygon class="st0" points="67.1,43.9 93.7,43.9 93.7,32.9 67.1,32.9 67.1,21.7 97.2,21.7 97.2,10.7 55.1,10.7 55.1,66.5   97.5,66.5 97.5,55.6 67.1,55.6 "/>
<polygon class="st0" points="154.1,22 171,22 171,66.6 183,66.6 183,22 199.9,22 199.9,10.8 154.1,10.8 "/>
<path class="st0" d="M253.2,29v-0.2c0-4.9-1.6-9.2-4.8-12.4c-3.8-3.7-9.4-5.7-16.3-5.7h-25v55.8h11.9V48h9.7l13.1,18.5h14.2  l-14.8-20.8C249,43,253.2,37.1,253.2,29z M219.1,21.9h12.3c3.6,0,9.7,1,9.7,7.5v0.2c0,4.7-3.7,7.6-9.6,7.6h-12.4L219.1,21.9  L219.1,21.9z"/>
<path class="st0" d="M297.4,42.7c0,8.7-4.3,13.5-12.1,13.5c-7.8,0-12.2-4.9-12.2-13.9V10.8h-11.9v31.9c0,15.5,9,24.7,24,24.7  c15.4,0,24.2-9.2,24.2-25.2V10.8h-11.9L297.4,42.7L297.4,42.7z"/>
<path class="st0" d="M370.4,38.5c0-16.1-12.4-27.8-29.6-27.8h-21.1v55.8h21.1c17.1,0,29.6-11.7,29.6-27.9V38.5z M331.6,21.9h9.2  c10.1,0,17.2,6.9,17.2,16.8v0.1c0,10-6.9,16.6-17.2,16.6h-9.2V21.9z"/>
<path class="st0" d="M405.1,10.3h-10.4l-24.5,56.2h12.4l5.5-12.8h23.4l5.4,12.8h12.7L405.1,10.3z M407,42.7h-14.4l7.2-16.7L407,42.7  z"/>
<g>
	<g>
		<polygon class="st1" points="117,19.8 117,37.6 113.2,33.4 113.2,24   "/>
	</g>
	<g>
		<polygon class="st2" points="117,31.3 98.7,11.2 104,11.2 117,25.5   "/>
	</g>
	<g>
		<polygon class="st1" points="117,51.3 117,65.4 113.2,61.2 113.2,55.4   "/>
	</g>
	<g>
		<polygon class="st1" points="117.8,42.1 117.8,51.3 114.1,47.1 114.1,46.2   "/>
	</g>
	<g>
		<polygon class="st0" points="133.4,30.7 151.8,10.5 146.5,10.5 133.4,24.8   "/>
	</g>
	<polygon class="st0" points="124.9,34.4 124.9,20.8 116.2,11.2 106,0 93.6,0 116.2,24.8 116.2,67.1 124.9,74.1  "/>
	<polygon class="st2" points="124.9,34.4 124.9,20.8 133.7,11.2 143.9,0 156.2,0 133.7,24.8 133.7,67.1 124.9,74.1  "/>
</g>
<g>
	<path class="st0" d="M428.7,16.1c0,3.5-2.9,6.4-6.4,6.4c-3.5,0-6.4-2.9-6.4-6.4c0-3.6,3-6.4,6.4-6.4   C425.7,9.7,428.7,12.5,428.7,16.1z M416.8,16.1c0,3,2.4,5.4,5.4,5.4c3,0,5.4-2.5,5.4-5.4c0-3-2.4-5.4-5.4-5.4   C419.3,10.8,416.8,13.1,416.8,16.1z M419.8,12.5h2.5c0.8,0,2.5,0,2.5,1.9c0,1.3-0.8,1.6-1.4,1.8c1,0.1,1.1,0.7,1.2,1.6   c0.1,0.6,0.2,1.6,0.4,1.9h-1.5c0-0.3-0.3-2.2-0.3-2.3c-0.1-0.4-0.2-0.6-0.7-0.6h-1.3v2.9h-1.4L419.8,12.5L419.8,12.5z M421.2,15.7   h1.1c0.9,0,1.1-0.6,1.1-1c0-1-0.7-1-1.1-1h-1.2V15.7z"/>
</g>
<g>
	<path class="st3" d="M7.5,81.3C5.6,89.5,4,97.9,4,106.4c0,8.6,1.4,17.3,3.5,25.6H4.9c-2.3-8-4.3-16.2-4.3-24.7   c0-8.9,1.9-17.6,4.5-26L7.5,81.3L7.5,81.3z"/>
	<path class="st3" d="M13.1,98.6l0.1-0.1c1.7-2.8,4.3-4.1,6.4-4.1c8.3,0,8.4,8,8.4,11.8v6.6c0,7.6-2.4,12.1-9.1,12.1   c-1.9,0-3.9-1-5.5-3.8l-0.1-0.1v14.4H10V95.1h3V98.6z M13.2,112.3c0,6.7,2.7,9.9,5.6,9.9c5.2,0,6-4.8,6-12.5c0-7.6-0.8-12.4-6-12.4   c-2,0-5.6,2.6-5.6,9.8V112.3z"/>
	<path class="st3" d="M35.5,110.4v2.3c0,4.1,1,9.5,6,9.5c3.9,0,5.9-2.8,5.8-6.7h3.3c-0.4,7.1-3.8,9.5-9.1,9.5c-4.6,0-9.1-2-9.1-10.9   v-7.2c0-8.5,3.2-12.4,9.1-12.4c9.1,0,9.1,7.2,9.1,15.9H35.5z M47.4,107.6c0-6.5-0.9-10.4-6-10.4c-5,0-6,3.9-6,10.4H47.4z"/>
	<path class="st3" d="M57.9,124.4h-3.2V95h2.8v3.7h0.1c1.3-2.4,3.4-4.2,6.3-4.2c2.7,0,5.1,1.7,6,4.6c1.3-2.9,3.6-4.6,6.5-4.6   c4.4,0,6.7,3.4,6.9,8.1v21.8h-3.2v-20.9c-0.1-2.9-1-6.1-4.1-6.1c-4,0-5.5,4.4-5.5,8.2v18.9h-3.2v-20.9c-0.1-2.9-1-6.1-4.1-6.1   c-4,0-5.5,4.4-5.5,8.2L57.9,124.4L57.9,124.4z"/>
	<path class="st3" d="M87.6,124.4c0.2-1,0.3-1.9,0.3-2.9v-39H91v15.9l0.1,0.1c1.6-2.8,3.7-4,6.7-4c8.6,0,7.9,10,7.9,15.2   c0,6.4-0.5,15.3-8.2,15.3c-3.1,0-5.4-1.4-6.7-4.1h-0.1v3.5L87.6,124.4L87.6,124.4z M96.7,122.1c5.8,0,6-5.5,6-12.4   s-0.2-12.5-6-12.5c-5.1,0-5.7,7.6-5.7,12C90.9,113.9,90.9,122.1,96.7,122.1z"/>
	<path class="st3" d="M113.3,99h0.1c1.3-2.8,4.1-4.5,7.3-4.5V98c-4.5-0.4-7.4,2.6-7.4,7.5v18.9h-3.2V95.1h3.2V99z"/>
	<path class="st3" d="M122.5,112.9v-6.3c0-7.6,2.9-12.1,9.1-12.1s9.1,4.5,9.1,12.1v6.3c0,7.6-2.9,12.1-9.1,12.1   S122.5,120.5,122.5,112.9z M125.6,109.7c0,7.7,0.8,12.5,6,12.5s6-4.8,6-12.5c0-7.6-0.8-12.4-6-12.4S125.6,102.1,125.6,109.7z"/>
	<path class="st3" d="M144.9,124.4V82.5h3.2v41.9H144.9z"/>
	<path class="st3" d="M152.3,86.9v-4.4h3.9v4.4H152.3z M152.7,124.4V95.1h3.2v29.3H152.7z"/>
	<path class="st3" d="M160.1,121.5l11-23.7h-10.4v-2.8h13.6V98l-10.8,23.6h11v2.8h-14.5L160.1,121.5L160.1,121.5z"/>
	<path class="st3" d="M195.5,95.1v29.3h-2.7v-3.2h-0.1c-1.8,2.5-3.7,3.8-6.7,3.8c-5.5,0-7-4.4-7-9.2V95.1h3.2v20.1   c0,0.8-0.2,7,4.4,7c4.3,0,5.8-4.4,5.8-6.4V95.1L195.5,95.1L195.5,95.1z"/>
	<path class="st3" d="M203.2,124.4h-3.2V95h2.8v3.7h0.1c1.3-2.4,3.4-4.2,6.3-4.2c2.7,0,5.1,1.7,6,4.6c1.3-2.9,3.6-4.6,6.5-4.6   c4.4,0,6.7,3.4,6.9,8.1v21.8h-3.2v-20.9c-0.1-2.9-1-6.1-4.1-6.1c-4,0-5.5,4.4-5.5,8.2v18.9h-3.2v-20.9c-0.1-2.9-1-6.1-4.1-6.1   c-4,0-5.5,4.4-5.5,8.2V124.4z"/>
	<path class="st3" d="M248.1,120.8H248c-1.7,2.8-4.3,4.2-7.5,4.2c-4.7,0-7.3-3.5-7.3-8.6c0-10.3,9.4-9.2,14.7-9.7v-2.4   c0-4.3-1.2-6.9-5.4-6.9c-2.9,0-5.2,1.6-5.2,5H234c0.3-5.6,4.2-7.8,8.8-7.8c2.7,0,8.2,0.3,8.2,7.8V117c0,2.1,0,3.9,0.3,7.4h-3.3   L248.1,120.8L248.1,120.8z M247.9,109.4c-4.5,0.2-11.3-0.4-11.3,6.7c0,3.3,1.5,6,4.8,6c3.6,0,6.6-3.6,6.6-7.4L247.9,109.4   L247.9,109.4z"/>
	<path class="st3" d="M255.5,124.4c0.2-1,0.3-1.9,0.3-2.9v-39h3.2v15.9l0.1,0.1c1.6-2.8,3.7-4,6.7-4c8.6,0,7.9,10,7.9,15.2   c0,6.4-0.5,15.3-8.2,15.3c-3.1,0-5.4-1.4-6.7-4.1h-0.1v3.5L255.5,124.4L255.5,124.4z M264.6,122.1c5.8,0,6-5.5,6-12.4   s-0.2-12.5-6-12.5c-5.1,0-5.7,7.6-5.7,12C258.9,113.9,258.9,122.1,264.6,122.1z"/>
	<path class="st3" d="M277.4,81.3c2.6,8.4,4.5,17.1,4.5,26c0,8.5-2,16.7-4.3,24.7H275c2.2-8.3,3.5-16.9,3.5-25.6   c0-8.5-1.6-16.9-3.5-25.2H277.4z"/>
</g>
<g>
	<path class="st3" d="M291.2,103.3v20.9h-1.7v-20.9H291.2z"/>
	<path class="st3" d="M295.8,124.3h-1.6v-14.6h1.6v1.8h0.1c0.8-1.2,1.8-2.1,3.2-2.1c3.3,0,3.6,2.7,3.6,4.6v10.3h-1.6V114   c0-1.7-0.6-3.3-2.4-3.3c-1.4,0-2.9,1.1-2.9,4.4L295.8,124.3L295.8,124.3z"/>
	<path class="st3" d="M307.4,109.6V127c0,1.1-0.3,3-2.6,3c-0.6,0-1-0.1-1.2-0.1v-1.5c1.9,0.1,2.2-0.4,2.2-2.4v-16.4H307.4z    M305.7,105.5v-2.2h1.9v2.2H305.7z"/>
	<path class="st3" d="M312,117.3v1.1c0,2,0.5,4.7,3,4.7c2,0,2.9-1.4,2.9-3.4h1.7c-0.2,3.5-1.9,4.8-4.6,4.8c-2.3,0-4.6-1-4.6-5.5   v-3.6c0-4.2,1.6-6.2,4.6-6.2c4.6,0,4.6,3.6,4.6,8L312,117.3L312,117.3z M318,115.9c0-3.2-0.5-5.2-3-5.2c-2.5,0-3,1.9-3,5.2H318z"/>
	<path class="st3" d="M327.6,113.8c0.1-1.8-0.5-3.1-2.3-3.1c-1,0-1.8,0.6-2.1,1.7c-0.2,0.7-0.4,2.7-0.4,4.6c0,2.6,0,6.1,2.4,6.1   c2.1,0,2.3-1.5,2.4-3.2h1.6c0.1,3.9-2.4,4.6-3.6,4.6c-4.5,0-4.5-3.9-4.5-7.5c0-1.5,0.1-3.7,0.4-4.8c0.7-2.1,2.2-2.8,4-2.8   c2.3,0,3.8,1.4,3.7,4.5L327.6,113.8L327.6,113.8z"/>
	<path class="st3" d="M330.5,111v-1.4h2.1v-3l1.6-0.8v3.8h2.7v1.4h-2.7v9.4c0,1.9,0.2,2.4,1.4,2.4c0.5,0,0.9,0,1.2-0.1v1.5   c-0.5,0.1-1,0.1-1.5,0.1c-2.1,0-2.8-1-2.8-2.8V111L330.5,111L330.5,111z"/>
	<path class="st3" d="M338.2,105.5v-2.2h1.9v2.2H338.2z M338.4,124.3v-14.6h1.6v14.6H338.4z"/>
	<path class="st3" d="M342.1,118.5v-3.2c0-3.8,1.5-6,4.6-6s4.6,2.2,4.6,6v3.2c0,3.8-1.5,6-4.6,6S342.1,122.3,342.1,118.5z    M343.6,116.9c0,3.8,0.4,6.2,3,6.2s3-2.4,3-6.2c0-3.8-0.4-6.2-3-6.2S343.6,113.1,343.6,116.9z"/>
	<path class="st3" d="M354.3,124.3h-1.6v-14.6h1.6v1.8h0.1c0.8-1.2,1.8-2.1,3.2-2.1c3.3,0,3.6,2.7,3.6,4.6v10.3h-1.6V114   c0-1.7-0.6-3.3-2.4-3.3c-1.4,0-2.9,1.1-2.9,4.4L354.3,124.3L354.3,124.3z"/>
	<path class="st3" d="M368.4,107.2c1.2-0.9,2.4-1.9,3.3-3.2h1.5v20.2h-1.6v-17.9c-1,1-2,2-3.2,2.8L368.4,107.2L368.4,107.2z"/>
	<path class="st3" d="M386.9,112v4.4c0,3.8,0,8.2-4.7,8.2c-4.7,0-4.7-4.4-4.7-8.2V112c0-3.8,0-8.2,4.7-8.2   C386.9,103.7,386.9,108.2,386.9,112z M379.2,118.1c0,4.6,1.8,4.9,3,4.9s3-0.3,3-4.9v-7.9c0-4.6-1.8-4.9-3-4.9s-3,0.3-3,4.9V118.1z"/>
	<path class="st3" d="M398.9,112v4.4c0,3.8,0,8.2-4.7,8.2c-4.7,0-4.7-4.4-4.7-8.2V112c0-3.8,0-8.2,4.7-8.2   C398.9,103.7,398.9,108.2,398.9,112z M391.3,118.1c0,4.6,1.8,4.9,3,4.9s3-0.3,3-4.9v-7.9c0-4.6-1.8-4.9-3-4.9s-3,0.3-3,4.9V118.1z"/>
	<path class="st3" d="M406.4,124.3h-1.6v-14.7h1.4v1.8h0.1c0.6-1.2,1.7-2.1,3.2-2.1c1.4,0,2.6,0.8,3,2.3c0.7-1.5,1.8-2.3,3.3-2.3   c2.2,0,3.4,1.7,3.4,4v10.9h-1.6v-10.5c0-1.5-0.5-3.1-2-3.1c-2,0-2.8,2.2-2.8,4.1v9.4h-1.6v-10.5c0-1.5-0.5-3.1-2-3.1   c-2,0-2.8,2.2-2.8,4.1V124.3z"/>
	<path class="st3" d="M428.6,109.6h1.5c-0.1,1.4-0.1,2.1-0.1,2.9v12.3c0,3.2-0.9,5.1-4.7,5.1c-3.3,0-4-2.6-3.9-4.1h1.6   c-0.1,1.7,1,2.7,2.5,2.7c3.1,0,2.9-1.8,2.9-6.2h-0.1c-0.7,1.2-1.9,1.8-3.2,1.8c-3.8,0-4.1-3.6-4.1-6.9c0-3.4,0-3.4,0.4-5   c0.1-0.6,1-2.9,3.7-2.9c1.3,0,2.7,0.8,3.3,2.1l0.1,0.1L428.6,109.6L428.6,109.6z M422.7,116.6c0,3,0,6.1,2.9,6.1   c1.3,0,2.2-1,2.4-1.7c0.4-1.1,0.5-1.8,0.5-6.1c0-3.1-1.5-4.2-3-4.2C422.8,110.7,422.7,114.5,422.7,116.6z"/>
</g>
</svg>